<svg xmlns="http://www.w3.org/2000/svg" viewBox="0 0 800 600" fill="none">
  <rect width="800" height="600" fill="#052F5F"/>
  <!-- Car body -->
  <ellipse cx="400" cy="350" rx="220" ry="80" fill="#F37E20" opacity="0.1"/>
  <path d="M200 320 Q250 250 350 250 L450 250 Q550 250 600 320 L620 350 L600 380 L200 380 L180 350 Z" fill="#F37E20"/>
  <!-- Windows -->
  <path d="M270 290 Q300 260 360 260 L380 260 L380 310 L260 310 Z" fill="#87CEEB" opacity="0.6"/>
  <path d="M400 260 L440 260 Q500 260 530 290 L540 310 L400 310 Z" fill="#87CEEB" opacity="0.6"/>
  <!-- Wheels -->
  <circle cx="280" cy="380" r="45" fill="#333"/>
  <circle cx="280" cy="380" r="25" fill="#666"/>
  <circle cx="280" cy="380" r="10" fill="#F37E20"/>
  <circle cx="520" cy="380" r="45" fill="#333"/>
  <circle cx="520" cy="380" r="25" fill="#666"/>
  <circle cx="520" cy="380" r="10" fill="#F37E20"/>
  <!-- Headlights -->
  <ellipse cx="620" cy="340" rx="15" ry="20" fill="#FFD700"/>
  <ellipse cx="180" cy="340" rx="10" ry="15" fill="#FF6B6B"/>
  <!-- Key with car fob -->
  <g transform="translate(620, 200)">
    <rect x="0" y="20" width="80" height="50" rx="10" fill="#333"/>
    <circle cx="25" cy="45" r="10" fill="#F37E20"/>
    <circle cx="55" cy="45" r="10" fill="#F37E20" opacity="0.5"/>
    <rect x="70" y="35" width="40" height="8" rx="2" fill="#666"/>
  </g>
  <!-- Text -->
  <text x="400" y="480" font-family="Arial, sans-serif" font-size="32" fill="#fff" text-anchor="middle" font-weight="bold">Car Loan</text>
  <text x="400" y="520" font-family="Arial, sans-serif" font-size="18" fill="#F37E20" text-anchor="middle">Starting 8.5% p.a.</text>
</svg>
