<svg xmlns="http://www.w3.org/2000/svg" viewBox="0 0 800 600" fill="none">
  <rect width="800" height="600" fill="#052F5F"/>
  <!-- Property/Building -->
  <rect x="150" y="150" width="200" height="300" fill="#F37E20" opacity="0.2"/>
  <rect x="150" y="150" width="200" height="40" fill="#F37E20"/>
  <!-- Windows grid -->
  <g fill="#87CEEB" opacity="0.4">
    <rect x="170" y="210" width="40" height="40"/>
    <rect x="230" y="210" width="40" height="40"/>
    <rect x="290" y="210" width="40" height="40"/>
    <rect x="170" y="270" width="40" height="40"/>
    <rect x="230" y="270" width="40" height="40"/>
    <rect x="290" y="270" width="40" height="40"/>
    <rect x="170" y="330" width="40" height="40"/>
    <rect x="230" y="330" width="40" height="40"/>
    <rect x="290" y="330" width="40" height="40"/>
  </g>
  <!-- Door -->
  <rect x="220" y="400" width="60" height="50" fill="#F37E20" opacity="0.6"/>
  <!-- Loan against arrow -->
  <g transform="translate(420, 220)">
    <rect width="250" height="120" rx="15" fill="#fff" opacity="0.1"/>
    <!-- Property icon -->
    <rect x="30" y="30" width="50" height="60" fill="#F37E20" opacity="0.5"/>
    <path d="M30 30 L55 10 L80 30" fill="#F37E20"/>
    <!-- Arrow -->
    <path d="M100 60 L150 60" stroke="#4CAF50" stroke-width="6"/>
    <path d="M140 45 L160 60 L140 75" fill="#4CAF50"/>
    <!-- Rupee -->
    <circle cx="200" cy="60" r="30" fill="#F37E20"/>
    <text x="200" y="70" font-family="Arial" font-size="28" fill="#fff" text-anchor="middle">₹</text>
  </g>
  <!-- Text -->
  <text x="400" y="500" font-family="Arial, sans-serif" font-size="30" fill="#fff" text-anchor="middle" font-weight="bold">Loan Against Property</text>
  <text x="400" y="540" font-family="Arial, sans-serif" font-size="18" fill="#F37E20" text-anchor="middle">Starting 9% p.a.</text>
</svg>
